<?xml version="1.0" encoding="UTF-8"?>
<svg version="1.1" xmlns="http://www.w3.org/2000/svg" width="256" height="256">
<path d="M0 0 C1.10730469 0.33902344 2.21460938 0.67804687 3.35546875 1.02734375 C25.08272372 8.46383418 44.13916039 25.50649046 56 45 C56 46.66666667 56 48.33333333 56 50 C56.928125 51.1446875 56.928125 51.1446875 57.875 52.3125 C60.68149321 55.86188847 61.19965786 58.56173904 62 63 C61.67 63.66 61.34 64.32 61 65 C59.02 65 57.04 65 55 65 C57.10211803 65.77640272 59.20683291 66.54577482 61.3125 67.3125 C62.26286133 67.66078857 62.26286133 67.66078857 63.23242188 68.01611328 C67.12406455 69.41534461 70.95392717 70.48765437 75 71.375 C80.40522792 72.77606055 83.11563127 75.28677429 86 80 C89.68768402 87.19976404 89.35097449 95.71889407 89.6875 103.625 C89.74744141 104.73746094 89.80738281 105.84992188 89.86914062 106.99609375 C90.70425652 126.64991703 90.70425652 126.64991703 85 134 C81 134 81 134 78 133 C77.77328613 133.64291992 77.54657227 134.28583984 77.31298828 134.94824219 C76 137 76 137 73.75341797 137.63769531 C72.38660889 137.73195801 72.38660889 137.73195801 70.9921875 137.828125 C70.00605469 137.90546875 69.01992187 137.9828125 68.00390625 138.0625 C66.97136719 138.124375 65.93882812 138.18625 64.875 138.25 C63.83472656 138.32734375 62.79445312 138.4046875 61.72265625 138.484375 C59.14915367 138.67325592 56.57569184 138.8443576 54 139 C53.525625 140.11375 53.05125 141.2275 52.5625 142.375 C51.74693537 144.26710994 50.92143645 146.15712709 50 148 C15.48100637 148.94024497 -19.03612958 149.13714695 -53.56617737 149.18167114 C-57.00421555 149.18750716 -60.44222307 149.19722163 -63.88024902 149.20800781 C-69.36555644 149.22466022 -74.85078143 149.23089882 -80.33611298 149.22919655 C-82.38769696 149.23003812 -84.43928255 149.23421534 -86.49085236 149.24188805 C-89.3260242 149.2516801 -92.16091734 149.24889218 -94.99609375 149.24291992 C-95.82486401 149.24854195 -96.65363426 149.25416397 -97.50751877 149.25995636 C-102.06650382 149.23515586 -105.70608655 148.73503373 -110 147 C-110 146.34 -110 145.68 -110 145 C-110.99 144.67 -111.98 144.34 -113 144 C-113.47179687 143.50886719 -113.94359375 143.01773438 -114.4296875 142.51171875 C-118.88768063 138.22006865 -126.67514631 138.94020316 -132.48388672 139.01245117 C-133.9677537 139.0452235 -135.45137184 139.09425225 -136.93408203 139.16137695 C-141.73704922 139.30068187 -145.04593946 138.80786815 -149 136 C-150.47984959 131.38893078 -150.14403534 126.43450951 -150.1328125 121.640625 C-150.13376923 120.73681091 -150.13472595 119.83299683 -150.13571167 118.90179443 C-150.13639088 116.9921461 -150.13455467 115.08249543 -150.13037109 113.17285156 C-150.12504417 110.27403466 -150.13031199 107.37537445 -150.13671875 104.4765625 C-150.13605744 102.614583 -150.13477517 100.75260359 -150.1328125 98.890625 C-150.13483673 98.03406311 -150.13686096 97.17750122 -150.13894653 96.29498291 C-150.12963497 93.8607075 -150.07839667 91.43297851 -150 89 C-149.98161072 88.19461792 -149.96322144 87.38923584 -149.9442749 86.55944824 C-149.70067999 82.44646233 -149.34953716 80.46716043 -146.82348633 77.09106445 C-143.84478215 74.88504618 -141.3371345 73.702404 -137.82421875 72.54296875 C-136.66728516 72.15302734 -135.51035156 71.76308594 -134.31835938 71.36132812 C-133.12017578 70.97396484 -131.92199219 70.58660156 -130.6875 70.1875 C-129.46998047 69.78080078 -128.25246094 69.37410156 -126.99804688 68.95507812 C-124.00284223 67.95667658 -121.00378036 66.97223195 -118 66 C-119.32 65.34 -120.64 64.68 -122 64 C-121.02109203 58.71389694 -119.98726669 54.53621979 -117 50 C-116.28604895 48.48179579 -115.57851291 46.96056918 -114.875 45.4375 C-104.81437855 25.19577062 -85.12786421 8.65891972 -63.81054688 1.23779297 C-43.0010422 -5.48766184 -21.00767143 -6.83708318 0 0 Z " fill="#F69809" transform="translate(158,36)"/>
<path d="M0 0 C2.58021147 2.58021147 2.25304505 4.33500089 2.29327393 7.85246277 C2.29236755 8.67120377 2.29146118 9.48994476 2.29052734 10.33349609 C2.29724457 11.19543076 2.30396179 12.05736542 2.31088257 12.94541931 C2.32993516 15.80481679 2.3337905 18.66398043 2.3359375 21.5234375 C2.34236072 23.50639952 2.34908871 25.48936057 2.35610962 27.47232056 C2.3681008 31.63358762 2.37178859 35.79477156 2.37060547 39.95605469 C2.37040225 45.29179659 2.39769901 50.62700601 2.43214989 55.96262169 C2.45437428 60.05982924 2.45844437 64.1569078 2.45738602 68.25416946 C2.45974892 70.22138936 2.46861102 72.18861244 2.48405075 74.15577316 C2.50361931 76.90680072 2.49790871 79.65666912 2.48583984 82.40771484 C2.49707886 83.22240738 2.50831787 84.03709991 2.51989746 84.8764801 C2.47956496 88.48938645 2.34327546 90.55554156 0.10029602 93.45965576 C-5.5233299 97.58398857 -10.8139241 97.26624536 -17.55078125 97.1953125 C-18.56472458 97.1924826 -19.57866791 97.18965271 -20.62333679 97.18673706 C-23.85317927 97.17556625 -27.08274171 97.15046711 -30.3125 97.125 C-32.50585536 97.1149662 -34.69921508 97.10584105 -36.89257812 97.09765625 C-42.26181386 97.07563707 -47.63088692 97.04219023 -53 97 C-53.46615723 95.99694824 -53.93231445 94.99389648 -54.41259766 93.96044922 C-55.03804855 92.61684458 -55.66353895 91.27325832 -56.2890625 89.9296875 C-56.59465088 89.27186279 -56.90023926 88.61403809 -57.21508789 87.9362793 C-61.20064026 77.8041884 -61.20064026 77.8041884 -67 69 C-72.6047709 68.78673597 -72.6047709 68.78673597 -78 70 C-78.8543836 71.92496638 -78.8543836 71.92496638 -79.375 74.3125 C-81.0431264 80.45544165 -83.49690279 86.15943984 -86 92 C-86.27714844 92.90105469 -86.55429688 93.80210937 -86.83984375 94.73046875 C-88 97 -88 97 -90.09765625 98.29296875 C-93.92335244 99.22493512 -97.51323071 99.32954722 -101.4375 99.3125 C-102.17548828 99.32861328 -102.91347656 99.34472656 -103.67382812 99.36132812 C-108.45152533 99.36557497 -111.97929933 98.85239816 -116 96 C-117.47821463 91.38759262 -117.14403719 86.43529786 -117.1328125 81.640625 C-117.13376923 80.73681091 -117.13472595 79.83299683 -117.13571167 78.90179443 C-117.13639088 76.9921461 -117.13455467 75.08249543 -117.13037109 73.17285156 C-117.12504417 70.27403466 -117.13031199 67.37537445 -117.13671875 64.4765625 C-117.13605744 62.614583 -117.13477517 60.75260359 -117.1328125 58.890625 C-117.13483673 58.03406311 -117.13686096 57.17750122 -117.13894653 56.29498291 C-117.12963497 53.8607075 -117.07839667 51.43297851 -117 49 C-116.98161072 48.19461792 -116.96322144 47.38923584 -116.9442749 46.55944824 C-116.70443846 42.5099223 -116.3431783 40.47107059 -113.90429688 37.12329102 C-110.6110879 34.71567178 -107.36536713 33.29645842 -103.53125 32.02734375 C-102.81449097 31.77755264 -102.09773193 31.52776154 -101.35925293 31.270401 C-99.07727908 30.47910481 -96.78896425 29.70830823 -94.5 28.9375 C-92.99434803 28.41729789 -91.489135 27.89582351 -89.984375 27.37304688 C-82.38640633 24.74812703 -74.75416466 22.29001214 -67.06054688 19.95874023 C-61.81768681 18.31637333 -56.66144884 16.44254061 -51.5 14.5625 C-50.40993652 14.16853027 -49.31987305 13.77456055 -48.19677734 13.36865234 C-42.64444006 11.35467497 -37.11912155 9.29234531 -31.625 7.125 C-27.00207389 5.31549005 -22.37721494 3.9137706 -17.56640625 2.6953125 C-15.04127056 2.01118137 -12.63934274 1.15869631 -10.1875 0.25 C-6.46382427 -1.02459151 -3.84139918 -1.21800462 0 0 Z " fill="#FBFBFA" transform="translate(125,76)"/>
<path d="M0 0 C0.495 2.475 0.495 2.475 1 5 C2.32 5 3.64 5 5 5 C5 10.28 5 15.56 5 21 C8.17382812 21.68359375 8.17382812 21.68359375 11.34765625 22.3671875 C14.59159634 23.1411467 17.79332698 24.08380771 21 25 C21 48.1 21 71.2 21 95 C24.96 95 28.92 95 33 95 C33 72.89 33 50.78 33 28 C37.72108005 29.18027001 42.34218647 30.59039854 47 32 C47 27.05 47 22.1 47 17 C47.33 17.66 47.66 18.32 48 19 C49.98 18.505 49.98 18.505 52 18 C51.67 43.41 51.34 68.82 51 95 C59.25 95 67.5 95 76 95 C76 95.33 76 95.66 76 96 C71.545 96.495 71.545 96.495 67 97 C66.525625 98.11375 66.05125 99.2275 65.5625 100.375 C64.74693537 102.26710994 63.92143645 104.15712709 63 106 C28.48100637 106.94024497 -6.03612958 107.13714695 -40.56617737 107.18167114 C-44.00421555 107.18750716 -47.44222307 107.19722163 -50.88024902 107.20800781 C-56.36555644 107.22466022 -61.85078143 107.23089882 -67.33611298 107.22919655 C-69.38769696 107.23003812 -71.43928255 107.23421534 -73.49085236 107.24188805 C-76.3260242 107.2516801 -79.16091734 107.24889218 -81.99609375 107.24291992 C-82.82486401 107.24854195 -83.65363426 107.25416397 -84.50751877 107.25995636 C-89.06650382 107.23515586 -92.70608655 106.73503373 -97 105 C-97 104.34 -97 103.68 -97 103 C-97.99 102.67 -98.98 102.34 -100 102 C-100.4125 101.525625 -100.825 101.05125 -101.25 100.5625 C-103.829945 98.25897767 -106.69277566 97.81120597 -110 97 C-110 96.34 -110 95.68 -110 95 C-109.34 95 -108.68 95 -108 95 C-107.82984375 94.32195312 -107.6596875 93.64390625 -107.484375 92.9453125 C-101.61675978 70.41117318 -101.61675978 70.41117318 -95 66 C-89.30530973 65.36725664 -89.30530973 65.36725664 -87 66 C-84.05454756 69.2808529 -82.13901946 72.47520417 -80.421875 76.51953125 C-79.98359375 77.54111328 -79.5453125 78.56269531 -79.09375 79.61523438 C-78.6503125 80.67033203 -78.206875 81.72542969 -77.75 82.8125 C-77.06164062 84.42415039 -77.06164062 84.42415039 -76.359375 86.06835938 C-75.23255416 88.70934572 -74.11304273 91.35318439 -73 94 C-66.57710161 94.05087056 -60.15425554 94.0858051 -53.73120117 94.10986328 C-51.54791319 94.11989692 -49.36463857 94.1335269 -47.18139648 94.15087891 C-44.03626195 94.17524313 -40.89130571 94.18650971 -37.74609375 94.1953125 C-36.7760289 94.20563507 -35.80596405 94.21595764 -34.8065033 94.22659302 C-29.50879852 94.22746249 -24.94204476 94.0092056 -20 92 C-18.72045972 88.16137916 -18.84434288 84.53769267 -18.83886719 80.53710938 C-18.83390228 79.67342239 -18.82893738 78.80973541 -18.82382202 77.9198761 C-18.80920932 75.06115933 -18.80240102 72.20249799 -18.796875 69.34375 C-18.79112423 67.35982257 -18.78536649 65.37589516 -18.77960205 63.39196777 C-18.76909559 59.23250062 -18.76325013 55.07305278 -18.75976562 50.91357422 C-18.75427182 45.5767498 -18.73022341 40.24017935 -18.70179367 34.90343475 C-18.68319937 30.80628708 -18.67796348 26.70920108 -18.67642975 22.61201477 C-18.67339705 20.64397284 -18.66534787 18.67593216 -18.65224457 16.70793152 C-18.63524582 13.95938567 -18.63704873 11.21146727 -18.64355469 8.46289062 C-18.6343399 7.64617386 -18.62512512 6.82945709 -18.6156311 5.98799133 C-18.5956655 1.68724442 -18.5956655 1.68724442 -20.52227783 -2.02893066 C-21.00992615 -2.34938354 -21.49757446 -2.66983643 -22 -3 C-14.37994382 -5.07819714 -7.25743593 -2.3217954 0 0 Z " fill="#1F1613" transform="translate(145,78)"/>
<path d="M0 0 C1.299375 0.45375 2.59875 0.9075 3.9375 1.375 C7.19854846 2.49278076 10.28527773 3.22925169 13.6875 3.75 C18.1202628 4.67220065 20.1774634 6.62781018 22.8515625 10.203125 C27.69545199 17.7819997 27.3170721 26.92241397 27.6875 35.625 C27.74744141 36.73746094 27.80738281 37.84992188 27.86914062 38.99609375 C28.70425652 58.64991703 28.70425652 58.64991703 23 66 C19 66 19 66 16 65 C15.77183594 65.64324219 15.54367188 66.28648437 15.30859375 66.94921875 C14 69 14 69 11.72265625 69.64453125 C10.84480469 69.69996094 9.96695313 69.75539063 9.0625 69.8125 C8.18722656 69.88082031 7.31195313 69.94914062 6.41015625 70.01953125 C4 70 4 70 1 69 C1 64.71 1 60.42 1 56 C-4.28 56 -9.56 56 -15 56 C-15 50.06 -15 44.12 -15 38 C-8.07 38.495 -8.07 38.495 -1 39 C-1 35.04 -1 31.08 -1 27 C-2.98 27 -4.96 27 -7 27 C-9.72850123 26.48897636 -12.31884977 25.73962765 -15 25 C-15 20.05 -15 15.1 -15 10 C-9.51483499 10.783595 -4.37342123 11.75997972 1 13 C0.67 8.71 0.34 4.42 0 0 Z " fill="#ECEBEA" transform="translate(220,104)"/>
<path d="M0 0 C9.73673876 2.43418469 19.39404464 5.16411204 28.640625 9.0859375 C32.98698094 10.76979063 37.48933679 11.84341969 42 13 C42 17.95 42 22.9 42 28 C32.5 26.25 32.5 26.25 28 24 C28 46.11 28 68.22 28 91 C24.04 91 20.08 91 16 91 C16 67.9 16 44.8 16 21 C11.545 20.01 11.545 20.01 7 19 C4.69 18.34 2.38 17.68 0 17 C0 11.39 0 5.78 0 0 Z " fill="#F4F4F3" transform="translate(150,82)"/>
<path d="M0 0 C5.04818777 1.51445633 10.10649817 3.04259927 15 5 C15 35.69 15 66.38 15 98 C10.05 98 5.1 98 0 98 C0 65.66 0 33.32 0 0 Z " fill="#FCFCFB" transform="translate(129,75)"/>
<path d="M0 0 C-1.32 2.64 -2.64 5.28 -4 8 C-38.51899363 8.94024497 -73.03612958 9.13714695 -107.56617737 9.18167114 C-111.00421555 9.18750716 -114.44222307 9.19722163 -117.88024902 9.20800781 C-123.36555644 9.22466022 -128.85078143 9.23089882 -134.33611298 9.22919655 C-136.38769696 9.23003812 -138.43928255 9.23421534 -140.49085236 9.24188805 C-143.3260242 9.2516801 -146.16091734 9.24889218 -148.99609375 9.24291992 C-149.82486401 9.24854195 -150.65363426 9.25416397 -151.50751877 9.25995636 C-156.06650382 9.23515586 -159.70608655 8.73503373 -164 7 C-164 6.34 -164 5.68 -164 5 C-164.99 4.67 -165.98 4.34 -167 4 C-167.33 3.01 -167.66 2.02 -168 1 C-166.14885013 -0.85114987 -163.10573016 -0.14912488 -160.62916565 -0.16494751 C-159.95593622 -0.17059105 -159.28270678 -0.1762346 -158.58907646 -0.18204916 C-156.31663453 -0.199852 -154.04421422 -0.21049367 -151.77172852 -0.22119141 C-150.14922805 -0.23240025 -148.52673046 -0.24403218 -146.90423584 -0.25605774 C-142.48490111 -0.28746704 -138.0655509 -0.31254559 -133.64616895 -0.3362546 C-129.03060912 -0.36178688 -124.41508057 -0.39213662 -119.79954529 -0.42172241 C-112.0459878 -0.47060782 -104.29241415 -0.51527758 -96.53881836 -0.55761719 C-87.56437238 -0.60668797 -78.58999317 -0.66298679 -69.61561447 -0.72303832 C-61.92307829 -0.77432005 -54.23052524 -0.82167176 -46.53794426 -0.86572587 C-41.93802017 -0.89207535 -37.33811554 -0.91981438 -32.73822212 -0.9510994 C-28.41355143 -0.98029617 -24.0888809 -1.00457431 -19.76416016 -1.02499962 C-18.17339509 -1.0333273 -16.58263807 -1.04339313 -14.99189568 -1.05528831 C-12.82719686 -1.07119747 -10.66255803 -1.08092413 -8.49781799 -1.08901978 C-6.67738149 -1.09951575 -6.67738149 -1.09951575 -4.8201685 -1.11022377 C-2 -1 -2 -1 0 0 Z " fill="#BD1D20" transform="translate(212,176)"/>
<path d="M0 0 C5.69377565 1.26528348 11.35817847 2.5351863 17 4 C17.66644531 4.165 18.33289063 4.33 19.01953125 4.5 C20.69727435 4.93737498 22.35182482 5.46182035 24 6 C25.38226016 8.76452033 25.09525387 11.0461363 25.0625 14.125 C25.05347656 15.22070312 25.04445312 16.31640625 25.03515625 17.4453125 C25.02355469 18.28835937 25.01195312 19.13140625 25 20 C23.64509704 19.88325099 22.29109304 19.75606577 20.9375 19.625 C20.18339844 19.55539063 19.42929688 19.48578125 18.65234375 19.4140625 C15.37548507 18.90250577 12.18894068 17.91112591 9 17 C9 21.95 9 26.9 9 32 C10.98 32 12.96 32 15 32 C17.72850123 32.51102364 20.31884977 33.26037235 23 34 C23 37.96 23 41.92 23 46 C18.00067249 46.0861953 14.02377899 45.8372965 9 45 C9 50.94 9 56.88 9 63 C14.28 63 19.56 63 25 63 C25 67.29 25 71.58 25 76 C16.75 76 8.5 76 0 76 C0 50.92 0 25.84 0 0 Z " fill="#F5F5F4" transform="translate(196,97)"/>
<path d="M0 0 C0.33 0.66 0.66 1.32 1 2 C2.32 1.67 3.64 1.34 5 1 C4.67 26.41 4.34 51.82 4 78 C12.25 78 20.5 78 29 78 C29 78.33 29 78.66 29 79 C28.30132812 79.06058594 27.60265625 79.12117188 26.8828125 79.18359375 C25.97273438 79.26738281 25.06265625 79.35117188 24.125 79.4375 C23.22007812 79.51871094 22.31515625 79.59992188 21.3828125 79.68359375 C18.98889139 79.86989285 18.98889139 79.86989285 17 81 C2.15 80.505 2.15 80.505 -13 80 C-13 57.56 -13 35.12 -13 12 C-3 14 -3 14 0 15 C0 10.05 0 5.1 0 0 Z " fill="#1B1613" transform="translate(192,95)"/>
<path d="M0 0 C8.75 2.75 8.75 2.75 11 5 C9.76302083 6.52994792 8.52604167 8.05989583 7.2890625 9.58984375 C3.28308545 17.0798069 3.69286635 25.66740457 3.75 33.9375 C3.74226563 35.05318359 3.73453125 36.16886719 3.7265625 37.31835938 C3.74727504 46.15743463 4.26597336 54.59952116 8.5625 62.5 C8.99691406 63.3146875 9.43132812 64.129375 9.87890625 64.96875 C10.24886719 65.6390625 10.61882812 66.309375 11 67 C11.495 67.99 11.495 67.99 12 69 C10.741875 69.185625 9.48375 69.37125 8.1875 69.5625 C7.12595703 69.71912109 7.12595703 69.71912109 6.04296875 69.87890625 C4 70 4 70 1 69 C1 64.71 1 60.42 1 56 C-4.28 56 -9.56 56 -15 56 C-15 50.06 -15 44.12 -15 38 C-8.07 38.495 -8.07 38.495 -1 39 C-1 35.04 -1 31.08 -1 27 C-2.98 27 -4.96 27 -7 27 C-9.72850123 26.48897636 -12.31884977 25.73962765 -15 25 C-15 20.05 -15 15.1 -15 10 C-9.51483499 10.783595 -4.37342123 11.75997972 1 13 C0.67 8.71 0.34 4.42 0 0 Z " fill="#24201D" transform="translate(220,104)"/>
<path d="M0 0 C3.1395017 0.86170584 4.15895335 2.96645651 6.03515625 5.55859375 C7.40722656 8.23754883 7.40722656 8.23754883 8.61328125 11.078125 C9.0093457 11.99956299 9.40541016 12.92100098 9.81347656 13.87036133 C10.29913086 15.02560303 10.78478516 16.18084473 11.28515625 17.37109375 C12.85265625 21.06296875 14.42015625 24.75484375 16.03515625 28.55859375 C31.21515625 28.88859375 46.39515625 29.21859375 62.03515625 29.55859375 C62.03515625 29.88859375 62.03515625 30.21859375 62.03515625 30.55859375 C36.01613238 30.66365255 10.03271098 30.75652029 -15.96484375 29.55859375 C-15.96484375 30.21859375 -15.96484375 30.87859375 -15.96484375 31.55859375 C-14.64484375 31.88859375 -13.32484375 32.21859375 -11.96484375 32.55859375 C-15.16547062 34.15890719 -17.68756181 32.59033066 -20.96484375 31.55859375 C-20.96484375 30.89859375 -20.96484375 30.23859375 -20.96484375 29.55859375 C-20.30484375 29.55859375 -19.64484375 29.55859375 -18.96484375 29.55859375 C-18.7946875 28.88054687 -18.62453125 28.2025 -18.44921875 27.50390625 C-11.46586573 0.68485903 -11.46586573 0.68485903 0 0 Z " fill="#1A1714" transform="translate(55.96484375,143.44140625)"/>
<path d="M0 0 C0.33 0.99 0.66 1.98 1 3 C-1.33333333 5.33333333 -3.66666667 7.66666667 -6 10 C-6.16681109 13.08347826 -6.16681109 13.08347826 -6 16 C-6.99 16.33 -7.98 16.66 -9 17 C-9.33 18.98 -9.66 20.96 -10 23 C-8.95328125 22.86722656 -7.9065625 22.73445313 -6.828125 22.59765625 C4.63369252 21.2318608 16.02376074 20.64906759 27.56542969 20.42993164 C28.71688477 20.4014917 29.86833984 20.37305176 31.0546875 20.34375 C32.59358643 20.31571289 32.59358643 20.31571289 34.16357422 20.28710938 C37.14207042 19.98561931 39.33119597 19.34421598 42 18 C42.33 17.34 42.66 16.68 43 16 C45.33333333 15.66666667 47.66666667 15.33333333 50 15 C50.33 14.34 50.66 13.68 51 13 C53.06640625 12.3671875 53.06640625 12.3671875 55.5625 11.875 C56.38878906 11.70742187 57.21507813 11.53984375 58.06640625 11.3671875 C58.70449219 11.24601562 59.34257813 11.12484375 60 11 C60 11.66 60 12.32 60 13 C61.65 13 63.3 13 65 13 C60.75090925 15.46920528 56.38315872 15.78728685 51.58203125 16.4375 C50.72996094 16.623125 49.87789063 16.80875 49 17 C48.67 17.66 48.34 18.32 48 19 C45.95182168 19.72901262 43.89767008 20.44344965 41.82446289 21.09790039 C33.59267835 23.72703375 25.49997208 26.79457079 17.421875 29.859375 C15.50679118 30.58098948 13.59136225 31.30167909 11.67578125 32.02197266 C10.38328646 32.51059074 9.09227899 33.00315992 7.80273438 33.49951172 C0.83480968 36.1763853 -5.68874185 38.55636495 -13.23339844 38.77050781 C-13.81637695 38.84624023 -14.39935547 38.92197266 -15 39 C-15.33 39.66 -15.66 40.32 -16 41 C-17.98 40.34 -19.96 39.68 -22 39 C-21.02109203 33.71389694 -19.98726669 29.53621979 -17 25 C-16.28604895 23.48179579 -15.57851291 21.96056918 -14.875 20.4375 C-11.21792454 13.01185288 -6.05073266 5.68460552 0 0 Z " fill="#98512A" transform="translate(58,61)"/>
<path d="M0 0 C2.93406543 2.12137114 4.51006392 3.82351848 5.359375 7.390625 C5.64227493 13.36802668 4.32268009 17.24183856 0.79296875 22.01171875 C-4.62658614 27.15334775 -9.49696656 28.4848451 -16.83203125 28.33203125 C-20.26658248 27.86881875 -21.93191257 26.57122727 -24.20703125 24.01171875 C-26.72536156 19.74305957 -26.882874 15.86089045 -26.20703125 11.01171875 C-23.77877669 6.15520964 -20.52598385 3.16095502 -16.20703125 0.01171875 C-11.0154371 -1.66506942 -5.05969368 -2.26566814 0 0 Z " fill="#181512" transform="translate(92.20703125,116.98828125)"/>
<path d="M0 0 C4.80748975 3.73915869 8.7679416 7.86683884 12.6875 12.5 C13.15067627 13.04551514 13.61385254 13.59103027 14.09106445 14.15307617 C22 23.63441559 22 23.63441559 22 30 C22.61875 30.763125 23.2375 31.52625 23.875 32.3125 C26.68149321 35.86188847 27.19965786 38.56173904 28 43 C27.505 43.99 27.505 43.99 27 45 C19.70965827 45.50764469 14.15452272 44.73564439 7.41015625 41.875 C4.80069827 40.77249751 4.80069827 40.77249751 1 41 C1 40.34 1 39.68 1 39 C-0.01320312 38.87367187 -1.02640625 38.74734375 -2.0703125 38.6171875 C-13.95107471 36.75122286 -25.70958943 32.51133594 -36.73828125 27.76953125 C-39.23296065 26.78526139 -39.23296065 26.78526139 -43 27 C-42.505 25.515 -42.505 25.515 -42 24 C-40.39536551 24.31008884 -38.79130769 24.62316287 -37.1875 24.9375 C-36.29417969 25.11152344 -35.40085938 25.28554687 -34.48046875 25.46484375 C-32 26 -32 26 -29 27 C-19.30309552 28.31811534 -9.51110393 28.11874467 0.25 28.0625 C1.78515478 28.05747043 3.32031116 28.05291012 4.85546875 28.04882812 C8.5703467 28.03794839 12.28516259 28.02076577 16 28 C16 25.36 16 22.72 16 20 C15.34 20 14.68 20 14 20 C12.37761317 17.76300423 10.9771559 15.42302461 9.53515625 13.06640625 C8.09271887 10.71260243 8.09271887 10.71260243 5 10 C5 9.34 5 8.68 5 8 C4.360625 7.79375 3.72125 7.5875 3.0625 7.375 C1 6 1 6 0.25 2.875 C0.1675 1.92625 0.085 0.9775 0 0 Z " fill="#D46B1C" transform="translate(192,56)"/>
<path d="M0 0 C30.97793868 -0.10682331 61.95316009 0.17654914 92.9295764 0.44538212 C100.04506715 0.50707227 107.16057272 0.56696734 114.27607965 0.62675762 C128.85073622 0.74926364 143.42537425 0.87387944 158 1 C157.67 1.99 157.34 2.98 157 4 C115.42 4 73.84 4 31 4 C31 4.66 31 5.32 31 6 C26.95857785 6.11662261 22.91759135 6.1873935 18.875 6.25 C17.73289062 6.28351563 16.59078125 6.31703125 15.4140625 6.3515625 C4.65900221 6.47662134 4.65900221 6.47662134 0 2 C0 1.34 0 0.68 0 0 Z " fill="#D5181D" transform="translate(47,177)"/>
<path d="M0 0 C1.10730469 0.33902344 2.21460938 0.67804687 3.35546875 1.02734375 C14.55585375 4.86084946 25.89612729 11.27275247 34 20 C29.36203713 19.49231946 26.33923336 17.39318566 22.6875 14.6875 C17.95427042 11.28586782 13.29004471 8.44909477 8 6 C7.01 5.34 6.02 4.68 5 4 C2.87950273 3.54598547 2.87950273 3.54598547 0.55078125 3.3671875 C-0.72055664 3.24150391 -0.72055664 3.24150391 -2.01757812 3.11328125 C-3.33918945 2.99533203 -3.33918945 2.99533203 -4.6875 2.875 C-5.58017578 2.78863281 -6.47285156 2.70226563 -7.39257812 2.61328125 C-9.5944515 2.40133622 -11.79676609 2.19720988 -14 2 C-14 1.34 -14 0.68 -14 0 C-41.89444849 0.14757456 -41.89444849 0.14757456 -68 9 C-68.33 9.66 -68.66 10.32 -69 11 C-71.96952036 12.10963923 -74.98433716 12.98919766 -78.01953125 13.90234375 C-80.86212341 14.94922238 -82.65079509 16.14345395 -85 18 C-85.825 18.144375 -86.65 18.28875 -87.5 18.4375 C-90.69929152 19.15734059 -91.74730476 20.67690803 -94 23 C-96.75 24.25 -96.75 24.25 -99 25 C-95.60305503 20.64153615 -92.10989839 17.23651874 -87.5625 14.0625 C-86.95124268 13.63428955 -86.33998535 13.2060791 -85.71020508 12.76489258 C-60.75456596 -4.31237437 -28.91208328 -9.40962539 0 0 Z " fill="#EA7F11" transform="translate(158,36)"/>
<path d="M0 0 C1.65 0.33 3.3 0.66 5 1 C6.42258812 4.82320557 7.24042276 7.91281305 7 12 C9.31 12 11.62 12 14 12 C14.19945986 15.1660296 14.38234428 18.33281796 14.5625 21.5 C14.61857422 22.386875 14.67464844 23.27375 14.73242188 24.1875 C15.03215454 29.62265235 14.8483317 34.62094863 14 40 C13.67 40 13.34 40 13 40 C13 37.03 13 34.06 13 31 C11.02 31 9.04 31 7 31 C7.061875 32.3921875 7.061875 32.3921875 7.125 33.8125 C7 37 7 37 5 40 C2.625 39.8125 2.625 39.8125 0 39 C-2.03477536 35.18631146 -2.25692848 31.87168297 -2.265625 27.59765625 C-2.26820313 26.37755859 -2.27078125 25.15746094 -2.2734375 23.90039062 C-2.26570312 22.63388672 -2.25796875 21.36738281 -2.25 20.0625 C-2.25773438 18.79986328 -2.26546875 17.53722656 -2.2734375 16.23632812 C-2.27085937 15.01494141 -2.26828125 13.79355469 -2.265625 12.53515625 C-2.26336914 11.425354 -2.26111328 10.31555176 -2.25878906 9.17211914 C-1.9866852 5.83679317 -1.18354051 3.11898771 0 0 Z " fill="#010100" transform="translate(233,121)"/>
<path d="M0 0 C-1.32 2.64 -2.64 5.28 -4 8 C-38.51899363 8.94024497 -73.03612958 9.13714695 -107.56617737 9.18167114 C-111.00421555 9.18750716 -114.44222307 9.19722163 -117.88024902 9.20800781 C-123.36555644 9.22466022 -128.85078143 9.23089882 -134.33611298 9.22919655 C-136.38769696 9.23003812 -138.43928255 9.23421534 -140.49085236 9.24188805 C-143.3260242 9.2516801 -146.16091734 9.24889218 -148.99609375 9.24291992 C-149.82486401 9.24854195 -150.65363426 9.25416397 -151.50751877 9.25995636 C-156.06650382 9.23515586 -159.70608655 8.73503373 -164 7 C-164 6.34 -164 5.68 -164 5 C-164.99 4.67 -165.98 4.34 -167 4 C-167.33 3.01 -167.66 2.02 -168 1 C-166.14885013 -0.85114987 -163.10573016 -0.14912488 -160.62916565 -0.16494751 C-159.95593622 -0.17059105 -159.28270678 -0.1762346 -158.58907646 -0.18204916 C-156.31663453 -0.199852 -154.04421422 -0.21049367 -151.77172852 -0.22119141 C-150.14922805 -0.23240025 -148.52673046 -0.24403218 -146.90423584 -0.25605774 C-142.48490111 -0.28746704 -138.0655509 -0.31254559 -133.64616895 -0.3362546 C-129.03060912 -0.36178688 -124.41508057 -0.39213662 -119.79954529 -0.42172241 C-112.0459878 -0.47060782 -104.29241415 -0.51527758 -96.53881836 -0.55761719 C-87.56437238 -0.60668797 -78.58999317 -0.66298679 -69.61561447 -0.72303832 C-61.92307829 -0.77432005 -54.23052524 -0.82167176 -46.53794426 -0.86572587 C-41.93802017 -0.89207535 -37.33811554 -0.91981438 -32.73822212 -0.9510994 C-28.41355143 -0.98029617 -24.0888809 -1.00457431 -19.76416016 -1.02499962 C-18.17339509 -1.0333273 -16.58263807 -1.04339313 -14.99189568 -1.05528831 C-12.82719686 -1.07119747 -10.66255803 -1.08092413 -8.49781799 -1.08901978 C-6.67738149 -1.09951575 -6.67738149 -1.09951575 -4.8201685 -1.11022377 C-2 -1 -2 -1 0 0 Z M-165 1 C-164.27382923 4.11005723 -164.27382923 4.11005723 -161.83726788 5.66453171 C-158.5128216 7.22930909 -156.26981039 7.3722886 -152.60371399 7.36749268 C-151.31236542 7.37306183 -150.02101685 7.37863098 -148.6905365 7.3843689 C-147.26675231 7.37534729 -145.84296997 7.36602953 -144.41918945 7.35644531 C-142.91432578 7.35723648 -141.4094623 7.35933462 -139.90460205 7.36264038 C-135.8242177 7.367769 -131.74408605 7.35425123 -127.6637423 7.33711338 C-123.39523453 7.32207023 -119.12672992 7.32325129 -114.85820007 7.32244873 C-107.69342741 7.31875799 -100.52875066 7.30379801 -93.36401367 7.28125 C-84.15978705 7.25234307 -74.95563752 7.24202339 -65.75137043 7.2375679 C-57.84416309 7.23359202 -49.93697259 7.22109212 -42.02977729 7.20722103 C-39.48438858 7.20311873 -36.93900047 7.20019486 -34.39361 7.19742584 C-30.40043971 7.1925405 -26.40731641 7.18235007 -22.41416931 7.16798782 C-20.94596976 7.1634574 -19.47776389 7.16062441 -18.00955772 7.15958023 C-16.01147408 7.15783995 -14.01339969 7.14933529 -12.01533508 7.14044189 C-10.89539815 7.13746723 -9.77546122 7.13449257 -8.6215868 7.13142776 C-6.01908333 7.17698694 -6.01908333 7.17698694 -4 6 C-4 4.35 -4 2.7 -4 1 C-57.13 1 -110.26 1 -165 1 Z " fill="#9A1D20" transform="translate(212,176)"/>
<path d="M0 0 C4.06455858 0.90323524 5.78109815 1.44867037 8.375 4.75 C9.18431592 9.32070799 8.96064371 13.33212575 7.1875 17.625 C4.18088507 21.14999681 2.00204993 23.48435919 -2.6875 24.25 C-6.27318067 23.63967138 -7.39363693 22.55986461 -9.625 19.75 C-11.40787687 16.18424625 -11.3680714 12.62502524 -10.625 8.75 C-7.99981245 4.02154647 -5.35967386 1.10889804 0 0 Z " fill="#1C1916" transform="translate(32.625,127.25)"/>
<path d="M0 0 C0.12375 0.804375 0.2475 1.60875 0.375 2.4375 C0.58125 3.283125 0.7875 4.12875 1 5 C1.66 5.33 2.32 5.66 3 6 C2.01 6.33 1.02 6.66 0 7 C0 36.04 0 65.08 0 95 C-0.33 95 -0.66 95 -1 95 C-1 64.31 -1 33.62 -1 2 C-4.3 1.01 -7.6 0.02 -11 -1 C-13.475 -1.99 -13.475 -1.99 -16 -3 C-16 29.34 -16 61.68 -16 95 C-16.33 95 -16.66 95 -17 95 C-17.88419671 89.68116677 -18.15063477 84.56120274 -18.15771484 79.17480469 C-18.16279556 78.32028717 -18.16787628 77.46576965 -18.17311096 76.58535767 C-18.18375953 74.7416967 -18.19240101 72.89802325 -18.19923019 71.05434418 C-18.21107645 68.13766335 -18.2305393 65.2211268 -18.25234985 62.30450439 C-18.31380628 54.01620238 -18.36814398 45.72792049 -18.40136719 37.43945312 C-18.42226768 32.36085242 -18.45751962 27.2825241 -18.50212479 22.20407867 C-18.51630662 20.26957645 -18.52501213 18.33502616 -18.52817917 16.40047455 C-18.53306776 13.70256296 -18.55616743 11.00538131 -18.58349609 8.30761719 C-18.58048996 7.50653534 -18.57748383 6.70545349 -18.5743866 5.88009644 C-18.59594211 1.63689534 -18.59594211 1.63689534 -20.52603149 -2.01922607 C-21.0124411 -2.34288147 -21.49885071 -2.66653687 -22 -3 C-14.37994382 -5.07819714 -7.25743593 -2.3217954 0 0 Z " fill="#5F5E5D" transform="translate(145,78)"/>
<path d="M0 0 C4.80748975 3.73915869 8.7679416 7.86683884 12.6875 12.5 C13.15067627 13.04551514 13.61385254 13.59103027 14.09106445 14.15307617 C22.48228459 24.21258491 22.48228459 24.21258491 22 30 C22.495 30.99 22.495 30.99 23 32 C17.04591644 32.27034216 11.09188861 32.50240528 5.13500977 32.7019043 C3.11671999 32.77455311 1.09875252 32.85693451 -0.91870117 32.94995117 C-12.87891627 33.49400272 -23.24494942 33.22253808 -34.60375977 29.19799805 C-37.42713547 28.20207363 -40.05585008 27.48957551 -43 27 C-42.505 25.515 -42.505 25.515 -42 24 C-40.39536551 24.31008884 -38.79130769 24.62316287 -37.1875 24.9375 C-36.29417969 25.11152344 -35.40085938 25.28554687 -34.48046875 25.46484375 C-32 26 -32 26 -29 27 C-19.30309552 28.31811534 -9.51110393 28.11874467 0.25 28.0625 C1.78515478 28.05747043 3.32031116 28.05291012 4.85546875 28.04882812 C8.5703467 28.03794839 12.28516259 28.02076577 16 28 C16 25.36 16 22.72 16 20 C15.34 20 14.68 20 14 20 C12.37761317 17.76300423 10.9771559 15.42302461 9.53515625 13.06640625 C8.09271887 10.71260243 8.09271887 10.71260243 5 10 C5 9.34 5 8.68 5 8 C4.360625 7.79375 3.72125 7.5875 3.0625 7.375 C1 6 1 6 0.25 2.875 C0.1675 1.92625 0.085 0.9775 0 0 Z " fill="#B25623" transform="translate(192,56)"/>
<path d="M0 0 C2.60158864 2.4715092 4.85869608 5.12031542 7 8 C7 8.66 7 9.32 7 10 C7.66 10 8.32 10 9 10 C9.495 14.455 9.495 14.455 10 19 C5.37760802 19.02502961 0.75525692 19.04301321 -3.8671875 19.05493164 C-5.4342518 19.059909 -7.00131158 19.06669329 -8.56835938 19.07543945 C-33.47881389 19.21082236 -33.47881389 19.21082236 -45 16 C-45.33 15.34 -45.66 14.68 -46 14 C-41.66666667 14 -37.33333333 14 -33 14 C-31.02994567 13.98866482 -29.05989381 13.97689812 -27.08984375 13.96484375 C-24.70572991 13.955536 -22.32161528 13.94642927 -19.9375 13.9375 C-18.17116211 13.92493164 -18.17116211 13.92493164 -16.36914062 13.91210938 C-9.18506964 13.89223093 -2.13981983 14.19314305 5 15 C5 11.61976483 4.12544378 9.16531063 3 6 C2.34 6 1.68 6 1 6 C0.505 3.03 0.505 3.03 0 0 Z " fill="#EC7C10" transform="translate(199,66)"/>
<path d="M0 0 C1.65 0.33 3.3 0.66 5 1 C6.42258812 4.82320557 7.24042276 7.91281305 7 12 C9.31 12 11.62 12 14 12 C14.19945986 15.1660296 14.38234428 18.33281796 14.5625 21.5 C14.61857422 22.386875 14.67464844 23.27375 14.73242188 24.1875 C15.03215454 29.62265235 14.8483317 34.62094863 14 40 C13.67 40 13.34 40 13 40 C13 37.03 13 34.06 13 31 C11.02 31 9.04 31 7 31 C7.061875 32.3921875 7.061875 32.3921875 7.125 33.8125 C7 37 7 37 5 40 C2.625 39.8125 2.625 39.8125 0 39 C-1.59660706 36.11090151 -2 34.30941204 -2 31 C2.95 30.67 7.9 30.34 13 30 C12.67 24.72 12.34 19.44 12 14 C9.69 14 7.38 14 5 14 C4.67 14.33 4.34 14.66 4 15 C2.00041636 15.04080783 -0.00045254 15.04254356 -2 15 C-2.21755666 9.5610835 -2.10428384 5.12919186 0 0 Z " fill="#2C231E" transform="translate(233,121)"/>
<path d="M0 0 C0.495 0.99 0.495 0.99 1 2 C2.65 2 4.3 2 6 2 C1.75090925 4.46920528 -2.61684128 4.78728685 -7.41796875 5.4375 C-8.27003906 5.623125 -9.12210938 5.80875 -10 6 C-10.33 6.66 -10.66 7.32 -11 8 C-24.07048649 14.07929604 -38.66187614 13.24958863 -52.6875 13.125 C-54.66080276 13.11495115 -56.63411046 13.10582867 -58.60742188 13.09765625 C-63.40507165 13.07579134 -68.20248036 13.04136616 -73 13 C-71.31777374 8.72049034 -69.32909284 4.95945783 -67 1 C-66.34 2.32 -65.68 3.64 -65 5 C-65.99 5.33 -66.98 5.66 -68 6 C-68.33 7.98 -68.66 9.96 -69 12 C-67.42992187 11.80083984 -67.42992187 11.80083984 -65.828125 11.59765625 C-54.36630748 10.2318608 -42.97623926 9.64906759 -31.43457031 9.42993164 C-30.28311523 9.4014917 -29.13166016 9.37305176 -27.9453125 9.34375 C-26.40641357 9.31571289 -26.40641357 9.31571289 -24.83642578 9.28710938 C-21.85792958 8.98561931 -19.66880403 8.34421598 -17 7 C-16.67 6.34 -16.34 5.68 -16 5 C-13.66666667 4.66666667 -11.33333333 4.33333333 -9 4 C-8.67 3.34 -8.34 2.68 -8 2 C-6.15234375 1.3671875 -6.15234375 1.3671875 -3.9375 0.875 C-3.20402344 0.70742187 -2.47054687 0.53984375 -1.71484375 0.3671875 C-1.14894531 0.24601562 -0.58304687 0.12484375 0 0 Z " fill="#E67714" transform="translate(117,72)"/>
<path d="M0 0 C10.56 0 21.12 0 32 0 C30.36541386 3.26917227 27.12193514 3.53427516 23.7890625 4.6640625 C22.82742187 4.98117188 21.86578125 5.29828125 20.875 5.625 C19.9365625 5.94984375 18.998125 6.2746875 18.03125 6.609375 C12.84828471 8.3370301 8.46884534 9.6108061 3 9 C2.01 8.34 1.02 7.68 0 7 C0 4.69 0 2.38 0 0 Z " fill="#EF770F" transform="translate(41,89)"/>
<path d="M0 0 C4.875 0.875 4.875 0.875 6 2 C7.99961455 2.09672695 10.00270193 2.1218703 12.00465393 2.12025452 C13.96300674 2.12231651 13.96300674 2.12231651 15.96092224 2.12442017 C17.42129539 2.12088055 18.88166831 2.11724573 20.34204102 2.11352539 C21.86926268 2.11324353 23.39648447 2.11340123 24.92370605 2.1139679 C29.08261688 2.11425591 33.24149911 2.10835855 37.40040326 2.10139394 C41.74194524 2.09516106 46.08348781 2.09455665 50.42503357 2.09336853 C58.65213582 2.09025502 66.87922486 2.08204137 75.10632128 2.07201904 C84.47013064 2.06085851 93.83394062 2.05534761 103.19775498 2.05032361 C122.46517749 2.03985877 141.73258769 2.02225895 161 2 C161 2.66 161 3.32 161 4 C126.48100637 4.94024497 91.96387042 5.13714695 57.43382263 5.18167114 C53.99578445 5.18750716 50.55777693 5.19722163 47.11975098 5.20800781 C41.63444356 5.22466022 36.14921857 5.23089882 30.66388702 5.22919655 C28.61230304 5.23003812 26.56071745 5.23421534 24.50914764 5.24188805 C21.6739758 5.2516801 18.83908266 5.24889218 16.00390625 5.24291992 C15.17513599 5.24854195 14.34636574 5.25416397 13.49248123 5.25995636 C8.98472018 5.23543451 5.16240853 4.95205639 1 3 C0.67 2.01 0.34 1.02 0 0 Z " fill="#7C1B1B" transform="translate(47,180)"/>
<path d="M0 0 C0.33 0.99 0.66 1.98 1 3 C0.113125 3.53625 -0.77375 4.0725 -1.6875 4.625 C-7.9208552 8.8295745 -10.81843871 13.99604006 -13 21 C-13 21.99 -13 22.98 -13 24 C-12.34 23.67 -11.68 23.34 -11 23 C-8.87748457 22.92614126 -6.75260307 22.91655538 -4.62890625 22.9375 C-2.68274414 22.94910156 -2.68274414 22.94910156 -0.69726562 22.9609375 C1.35605415 22.97942054 3.40934891 22.99971493 5.46264648 23.02050781 C13.70913446 23.09685488 21.80413506 22.96434603 30 22 C29.505 23.485 29.505 23.485 29 25 C28.20416504 25.02505615 27.40833008 25.0501123 26.58837891 25.07592773 C22.93379832 25.19296986 19.27940825 25.31519962 15.625 25.4375 C14.37332031 25.47681641 13.12164062 25.51613281 11.83203125 25.55664062 C5.53373008 25.77098072 -0.69831024 26.10123392 -6.96240234 26.79272461 C-10.65241275 27.16809231 -14.29593354 27.05974301 -18 27 C-17.625 24.0625 -17.625 24.0625 -17 21 C-16.34 20.67 -15.68 20.34 -15 20 C-15.103125 19.13375 -15.20625 18.2675 -15.3125 17.375 C-14.88126027 12.71761095 -13.23508273 11.31210851 -10 8 C-9.34 7.67 -8.68 7.34 -8 7 C-7.67 6.01 -7.34 5.02 -7 4 C-4.78298853 2.41034429 -2.42137527 1.27672514 0 0 Z " fill="#F0850E" transform="translate(66,57)"/>
<path d="M0 0 C1.18980469 -0.01224609 2.37960938 -0.02449219 3.60546875 -0.03710938 C10.31888363 -0.04823658 16.26579086 0.4273016 22.75 2.1875 C22.75 2.5175 22.75 2.8475 22.75 3.1875 C21.78811768 3.17702637 20.82623535 3.16655273 19.83520508 3.15576172 C16.20275727 3.11905095 12.57032516 3.09641751 8.93774414 3.07763672 C7.37749457 3.06769372 5.81726304 3.05413453 4.25708008 3.03662109 C-8.75856971 2.89437356 -21.99562616 3.21615159 -34.25 8.1875 C-34.91 8.8475 -35.57 9.5075 -36.25 10.1875 C-38.875 10.3125 -38.875 10.3125 -41.25 10.1875 C-41.25 10.8475 -41.25 11.5075 -41.25 12.1875 C-42.57 11.8575 -43.89 11.5275 -45.25 11.1875 C-31.25461013 3.10662379 -15.98273625 0.00854692 0 0 Z " fill="#B65E25" transform="translate(127.25,31.8125)"/>
<path d="M0 0 C3.91641711 -0.11618764 7.83239101 -0.18724654 11.75 -0.25 C13.41675781 -0.30027344 13.41675781 -0.30027344 15.1171875 -0.3515625 C16.18710938 -0.36445312 17.25703125 -0.37734375 18.359375 -0.390625 C19.34389648 -0.41157227 20.32841797 -0.43251953 21.34277344 -0.45410156 C24.69640696 0.11901111 25.85922021 1.43284083 28 4 C27.67 4.66 27.34 5.32 27 6 C12.21867882 6.18451025 12.21867882 6.18451025 6 5 C6 4.34 6 3.68 6 3 C5.195625 2.87625 4.39125 2.7525 3.5625 2.625 C2.716875 2.41875 1.87125 2.2125 1 2 C0.67 1.34 0.34 0.68 0 0 Z " fill="#ED7B10" transform="translate(188,91)"/>
<path d="M0 0 C10.29253409 -0.023216 20.5850619 -0.0409622 30.87761688 -0.05181217 C35.65735299 -0.05702077 40.43707111 -0.06408157 45.21679688 -0.07543945 C49.83334021 -0.08634037 54.4498663 -0.09229207 59.06642151 -0.09487724 C60.823779 -0.09671853 62.5811356 -0.10031405 64.33848572 -0.10573006 C66.80835985 -0.11303619 69.2781636 -0.11398693 71.74804688 -0.11352539 C72.46734375 -0.11712067 73.18664062 -0.12071594 73.92773438 -0.12442017 C78.69707077 -0.11483684 83.27658541 0.33179562 88 1 C88 1.33 88 1.66 88 2 C77.36034243 2.13059883 66.72068247 2.26100124 56.0810194 2.39115143 C51.14084442 2.45158856 46.2006703 2.51209389 41.26049805 2.57275391 C36.49485274 2.63126843 31.72920529 2.68960534 26.96355629 2.74781799 C25.14345535 2.77008205 23.3233552 2.79241061 21.50325584 2.81480408 C18.95814591 2.84610675 16.4130333 2.87718215 13.86791992 2.90820312 C12.73395782 2.92222923 12.73395782 2.92222923 11.5770874 2.9365387 C3.11728219 3.03909406 3.11728219 3.03909406 0 2 C0 1.34 0 0.68 0 0 Z " fill="#0D0101" transform="translate(40,173)"/>
<path d="M0 0 C2.59491025 2.59491025 2.23591161 4.36245347 2.24884033 7.89689636 C2.24164978 8.72192154 2.23445923 9.54694672 2.22705078 10.39697266 C2.22734283 11.26533249 2.22763489 12.13369232 2.22793579 13.02836609 C2.22653917 15.90703218 2.21096242 18.78544146 2.1953125 21.6640625 C2.19158355 23.6566046 2.18873602 25.64914853 2.18673706 27.64169312 C2.17909132 32.89262939 2.15943477 38.14345548 2.1373291 43.39434814 C2.11689091 48.74986276 2.10773969 54.10539514 2.09765625 59.4609375 C2.07618975 69.97400681 2.04204249 80.48699425 2 91 C1.67 91 1.34 91 1 91 C0.98969254 89.91671921 0.97938507 88.83343842 0.96876526 87.71733093 C0.87110676 77.5199203 0.76837983 67.32257173 0.66066074 57.12526226 C0.605442 51.88243918 0.5520236 46.6396105 0.50268555 41.39672852 C0.45502663 36.3392578 0.40268315 31.28185549 0.34705925 26.22446632 C0.32664265 24.29273997 0.30792841 22.36099487 0.29092598 20.42923546 C0.26686669 17.72838931 0.23681409 15.02767256 0.20532227 12.3269043 C0.1995668 11.52417587 0.19381134 10.72144745 0.18788147 9.89439392 C0.14509702 6.67684519 0.02463638 4.07390914 -1 1 C-5.62 1.66 -10.24 2.32 -15 3 C-14.67 2.34 -14.34 1.68 -14 1 C-8.94443197 -0.62806428 -5.23354713 -1.49529918 0 0 Z " fill="#EEEDEC" transform="translate(125,76)"/>
<path d="M0 0 C1.39572052 -0.02736707 2.79160221 -0.04655989 4.1875 -0.0625 C4.96480469 -0.07410156 5.74210938 -0.08570312 6.54296875 -0.09765625 C9 0 9 0 11.33105469 0.48852539 C13.98122945 0.99640283 16.46575488 1.18743623 19.16015625 1.28125 C20.11857422 1.31863281 21.07699219 1.35601562 22.06445312 1.39453125 C24.06705247 1.464981 26.06965666 1.53529297 28.07226562 1.60546875 C29.02939453 1.64285156 29.98652344 1.68023437 30.97265625 1.71875 C32.27601929 1.76418945 32.27601929 1.76418945 33.60571289 1.81054688 C35.85832146 1.98878938 37.82048346 2.43256986 40 3 C42.75317974 3.22390317 45.49305329 3.41393662 48.25 3.5625 C48.99507812 3.60568359 49.74015625 3.64886719 50.5078125 3.69335938 C52.338349 3.79896725 54.16915176 3.89994201 56 4 C56 4.33 56 4.66 56 5 C51.37760802 5.02502961 46.75525692 5.04301321 42.1328125 5.05493164 C40.5657482 5.059909 38.99868842 5.06669329 37.43164062 5.07543945 C12.52118611 5.21082236 12.52118611 5.21082236 1 2 C0.67 1.34 0.34 0.68 0 0 Z " fill="#E77213" transform="translate(153,80)"/>
<path d="M0 0 C5.62648669 -0.58609236 8.34284797 0.46523935 12.96484375 3.64453125 C14.9274112 4.95165391 16.86399541 5.9468286 19 6.9375 C22.77806567 8.75601884 25.89874115 11.10662781 29.1796875 13.69921875 C31.04826195 15.16935806 31.04826195 15.16935806 33.8125 15.9375 C37.24693762 17.60565542 37.6885335 20.56520679 39 24 C39.66 24.33 40.32 24.66 41 25 C41 25.66 41 26.32 41 27 C40.01 27 39.02 27 38 27 C35 22.77777778 35 22.77777778 35 20 C33.8553125 19.5978125 33.8553125 19.5978125 32.6875 19.1875 C30.07686496 18.03396359 28.92614911 17.01370135 27 15 C26.01 14.67 25.02 14.34 24 14 C23.67 13.34 23.34 12.68 23 12 C18.14568667 9.399475 13.16232306 7.15967112 8.12109375 4.94921875 C5.36998109 3.71805784 2.6815705 2.37516436 0 1 C0 0.67 0 0.34 0 0 Z " fill="#E97E12" transform="translate(156,39)"/>
<path d="M0 0 C0.66 0 1.32 0 2 0 C2 1.65 2 3.3 2 5 C2.66 5 3.32 5 4 5 C4 5.66 4 6.32 4 7 C11.35278809 5.86489216 17.98067063 3.64840568 24.8984375 0.92578125 C28.06375898 -0.01903133 28.98929585 0.07009205 32 1 C29.04936288 2.16635132 26.08841088 3.3040397 23.125 4.4375 C22.30257812 4.76298828 21.48015625 5.08847656 20.6328125 5.42382812 C15.33735686 7.43030936 10.5948434 8.45395409 4.92919922 8.71118164 C4.29256348 8.8064917 3.65592773 8.90180176 3 9 C2.67 9.66 2.34 10.32 2 11 C0.02 10.34 -1.96 9.68 -4 9 C-3.67 6.69 -3.34 4.38 -3 2 C-2.01 2 -1.02 2 0 2 C0 1.34 0 0.68 0 0 Z " fill="#B25825" transform="translate(40,91)"/>
<path d="M0 0 C3.30528293 2.40384213 3.8376884 5.38514146 4.765625 9.16015625 C5 11 5 11 4 13 C-4.21237916 13.57184845 -10.46005743 12.26682231 -18 9 C-14.18483536 7.69937569 -10.72438237 8.10630147 -6.75 8.4375 C-4.85507813 8.59025391 -4.85507813 8.59025391 -2.921875 8.74609375 C-1.95765625 8.82988281 -0.9934375 8.91367188 0 9 C-0.309375 8.401875 -0.61875 7.80375 -0.9375 7.1875 C-2 5 -2 5 -3 2 C-2.01 2 -1.02 2 0 2 C0 1.34 0 0.68 0 0 Z " fill="#B5541F" transform="translate(215,88)"/>
<path d="M0 0 C1.60463449 0.31008884 3.20869231 0.62316287 4.8125 0.9375 C5.70582031 1.11152344 6.59914062 1.28554687 7.51953125 1.46484375 C10 2 10 2 13 3 C22.35635765 4.18268566 31.83221435 4.294265 41.25 4.5625 C42.68881084 4.60582986 44.12761304 4.64944794 45.56640625 4.69335938 C49.04417776 4.79888509 52.52204888 4.90054774 56 5 C56 5.33 56 5.66 56 6 C54.85934082 6.02505615 53.71868164 6.0501123 52.54345703 6.07592773 C48.32035659 6.16994293 44.09742291 6.27017787 39.87451172 6.37231445 C38.04512425 6.41568565 36.21569573 6.45735911 34.38623047 6.49731445 C31.75996514 6.55496418 29.1339069 6.61867365 26.5078125 6.68359375 C25.27649094 6.70866249 25.27649094 6.70866249 24.02029419 6.73423767 C19.8766304 6.7431387 19.8766304 6.7431387 16 8 C14.03991723 7.44990292 12.10444213 6.81046636 10.1875 6.125 C6.46487855 4.8024289 2.89546553 3.67684614 -1 3 C-0.67 2.01 -0.34 1.02 0 0 Z " fill="#A95D2C" transform="translate(150,80)"/>
<path d="M0 0 C15.54034106 2.98852713 27.60411848 10.63715332 40 20 C39.01 20.33 38.02 20.66 37 21 C34.94921875 19.92578125 34.94921875 19.92578125 32.6875 18.3125 C31.88828125 17.75433594 31.0890625 17.19617188 30.265625 16.62109375 C29.51796875 16.08613281 28.7703125 15.55117188 28 15 C24.0618564 12.26741056 20.14727159 9.98942747 15.83203125 7.9296875 C14 7 14 7 11 5 C8.67612053 4.60612212 6.34206251 4.26513915 4 4 C4 3.34 4 2.68 4 2 C2.68 1.67 1.36 1.34 0 1 C0 0.67 0 0.34 0 0 Z " fill="#B15D27" transform="translate(152,35)"/>
<path d="M0 0 C13.2 0 26.4 0 40 0 C40 0.66 40 1.32 40 2 C34.946682 2.1926016 29.89313436 2.37126925 24.83886719 2.53710938 C23.11998328 2.59546454 21.40122359 2.65760799 19.68261719 2.72363281 C17.21051656 2.81794417 14.73828761 2.89856795 12.265625 2.9765625 C11.11540863 3.02485703 11.11540863 3.02485703 9.94195557 3.0741272 C6.11464907 3.18128836 3.23753806 3.18571118 0 1 C0 0.67 0 0.34 0 0 Z " fill="#370E09" transform="translate(167,86)"/>
<path d="M0 0 C13.2 0 26.4 0 40 0 C36.67777063 3.32222937 32.83662976 2.99510067 28.28955078 3.02172852 C26.92460673 2.98018203 25.55984434 2.93230322 24.1953125 2.87890625 C23.1093428 2.84348976 23.1093428 2.84348976 22.00143433 2.80735779 C19.70905949 2.73132307 17.41707519 2.64704376 15.125 2.5625 C13.56251855 2.50921886 12.00001854 2.45647897 10.4375 2.40429688 C6.62475684 2.2757905 2.81234164 2.13989371 -1 2 C-0.67 1.34 -0.34 0.68 0 0 Z " fill="#3A0A05" transform="translate(45,86)"/>
<path d="M0 0 C0 0.33 0 0.66 0 1 C-1.98 1 -3.96 1 -6 1 C-5.95875 1.928125 -5.9175 2.85625 -5.875 3.8125 C-6 7 -6 7 -8 10 C-10.375 9.8125 -10.375 9.8125 -13 9 C-14.59660706 6.11090151 -15 4.30941204 -15 1 C-9.92928099 0.28832014 -5.11791642 -0.10662326 0 0 Z " fill="#2C2927" transform="translate(246,151)"/>
<path d="M0 0 C0.33 0 0.66 0 1 0 C1 2.31 1 4.62 1 7 C6.61 7 12.22 7 18 7 C18 7.66 18 8.32 18 9 C-0.34042553 9.38297872 -0.34042553 9.38297872 -9 7 C-6 5 -6 5 -3.9375 4.625 C-1.79331795 4.16676943 -1.79331795 4.16676943 -0.75 1.9375 C-0.37875 0.9784375 -0.37875 0.9784375 0 0 Z " fill="#190F0E" transform="translate(127,166)"/>
<path d="M0 0 C0.33 0.66 0.66 1.32 1 2 C2.65 2 4.3 2 6 2 C1.75090925 4.46920528 -2.61684128 4.78728685 -7.41796875 5.4375 C-8.69607422 5.7159375 -8.69607422 5.7159375 -10 6 C-10.33 6.66 -10.66 7.32 -11 8 C-15.7705188 10.09902827 -20.84123287 11.3386196 -26 12 C-23.0045072 9.42054787 -20.85648699 7.82639007 -17 7 C-16.67 6.34 -16.34 5.68 -16 5 C-13.66666667 4.66666667 -11.33333333 4.33333333 -9 4 C-8.67 3.34 -8.34 2.68 -8 2 C-6.15234375 1.3671875 -6.15234375 1.3671875 -3.9375 0.875 C-2.83728516 0.62363281 -2.83728516 0.62363281 -1.71484375 0.3671875 C-1.14894531 0.24601562 -0.58304688 0.12484375 0 0 Z " fill="#B9712E" transform="translate(117,72)"/>
<path d="M0 0 C0.66 0.33 1.32 0.66 2 1 C1.01 1.33 0.02 1.66 -1 2 C-1.309375 2.78375 -1.61875 3.5675 -1.9375 4.375 C-3.17788987 7.43949262 -4.15582314 8.37475608 -7 10 C-7.825 10.144375 -8.65 10.28875 -9.5 10.4375 C-12.69929152 11.15734059 -13.74730476 12.67690803 -16 15 C-18.75 16.25 -18.75 16.25 -21 17 C-17.39561471 12.31086638 -13.67833433 9.01782548 -8.8125 5.6875 C-8.18408203 5.24599609 -7.55566406 4.80449219 -6.90820312 4.34960938 C-2.39445755 1.19722877 -2.39445755 1.19722877 0 0 Z " fill="#BD6422" transform="translate(80,44)"/>
<path d="M0 0 C4.3958194 -0.02907584 8.79161399 -0.0468244 13.1875 -0.0625 C14.43337891 -0.07087891 15.67925781 -0.07925781 16.96289062 -0.08789062 C18.16494141 -0.09111328 19.36699219 -0.09433594 20.60546875 -0.09765625 C22.26292114 -0.10551147 22.26292114 -0.10551147 23.95385742 -0.11352539 C26.75799379 -0.00901923 29.27417329 0.35902041 32 1 C31.67 1.66 31.34 2.32 31 3 C16.15 2.505 16.15 2.505 1 2 C0.67 1.34 0.34 0.68 0 0 Z " fill="#F4820D" transform="translate(166,80)"/>
<path d="M0 0 C6.2059772 4.88555652 11.49381304 10.49106328 16 17 C16 17.99 16 18.98 16 20 C15.34 20 14.68 20 14 20 C12.37761317 17.76300423 10.9771559 15.42302461 9.53515625 13.06640625 C8.09271887 10.71260243 8.09271887 10.71260243 5 10 C5 9.34 5 8.68 5 8 C4.360625 7.79375 3.72125 7.5875 3.0625 7.375 C1 6 1 6 0.25 2.875 C0.1675 1.92625 0.085 0.9775 0 0 Z " fill="#B15A26" transform="translate(192,56)"/>
<path d="M0 0 C1.05904289 0.00424484 1.05904289 0.00424484 2.13948059 0.00857544 C4.39133758 0.01975786 6.64279477 0.0448583 8.89453125 0.0703125 C10.42252029 0.08034483 11.95051558 0.08947024 13.47851562 0.09765625 C17.22150788 0.11969078 20.96420181 0.15420683 24.70703125 0.1953125 C24.70703125 0.5253125 24.70703125 0.8553125 24.70703125 1.1953125 C12.33203125 1.6903125 12.33203125 1.6903125 -0.29296875 2.1953125 C2.67703125 3.6803125 2.67703125 3.6803125 5.70703125 5.1953125 C2.56384672 6.76690476 -0.22230264 5.23549649 -3.41796875 4.2578125 C-4.07667969 4.06251953 -4.73539063 3.86722656 -5.4140625 3.66601562 C-7.04230427 3.18226264 -8.66790057 2.68962175 -10.29296875 2.1953125 C-6.69852692 -0.20098205 -4.14435223 -0.06250081 0 0 Z " fill="#995935" transform="translate(182.29296875,87.8046875)"/>
<path d="M0 0 C0.33 0.99 0.66 1.98 1 3 C-0.299375 3.7425 -0.299375 3.7425 -1.625 4.5 C-5.16568032 6.81313313 -7.20871061 9.79235881 -9.5078125 13.29296875 C-11.26358219 15.3015325 -12.40151082 15.62639748 -15 16 C-13.43909056 12.16867684 -10.8924866 9.8924866 -8 7 C-7.67 6.01 -7.34 5.02 -7 4 C-4.78298853 2.41034429 -2.42137527 1.27672514 0 0 Z " fill="#DE7218" transform="translate(66,57)"/>
<path d="M0 0 C0.66 1.32 1.32 2.64 2 4 C1.01 4.33 0.02 4.66 -1 5 C-1.33 6.98 -1.66 8.96 -2 11 C3.61 11 9.22 11 15 11 C15 11.33 15 11.66 15 12 C8.07 12 1.14 12 -6 12 C-4.24858504 7.6214626 -2.37016034 4.02927258 0 0 Z " fill="#DF6C18" transform="translate(50,73)"/>
<path d="M0 0 C-4.1067857 2.73785713 -8.53630068 3.43121634 -13.28320312 4.5 C-17.55989244 5.43249274 -17.55989244 5.43249274 -21 8 C-23.625 8.125 -23.625 8.125 -26 8 C-26 8.66 -26 9.32 -26 10 C-27.32 9.67 -28.64 9.34 -30 9 C-23.9406892 5.50138074 -17.74175688 3.11750675 -11.0625 1.125 C-10.31685791 0.8978833 -9.57121582 0.6707666 -8.80297852 0.43676758 C-3.37463522 -1.12487841 -3.37463522 -1.12487841 0 0 Z " fill="#A65729" transform="translate(112,34)"/>
<path d="M0 0 C0.12375 0.804375 0.2475 1.60875 0.375 2.4375 C0.58125 3.283125 0.7875 4.12875 1 5 C1.66 5.33 2.32 5.66 3 6 C1.68 6.33 0.36 6.66 -1 7 C-1 5.35 -1 3.7 -1 2 C-2.56159059 1.51787786 -4.12431928 1.03944127 -5.6875 0.5625 C-6.55761719 0.29566406 -7.42773438 0.02882813 -8.32421875 -0.24609375 C-10.87025921 -0.96344529 -13.4003423 -1.517541 -16 -2 C-16.99 -0.515 -16.99 -0.515 -18 1 C-19.32 -0.32 -20.64 -1.64 -22 -3 C-14.37994382 -5.07819714 -7.25743593 -2.3217954 0 0 Z " fill="#885430" transform="translate(145,78)"/>
<path d="M0 0 C1.90845703 0.15275391 1.90845703 0.15275391 3.85546875 0.30859375 C4.83128906 0.39238281 5.80710937 0.47617188 6.8125 0.5625 C4.00771487 3.36728513 1.92706528 3.52358361 -1.984375 3.66015625 C-2.95890625 3.64855469 -3.9334375 3.63695313 -4.9375 3.625 C-5.92234375 3.61597656 -6.9071875 3.60695313 -7.921875 3.59765625 C-8.66953125 3.58605469 -9.4171875 3.57445313 -10.1875 3.5625 C-10.1875 2.5725 -10.1875 1.5825 -10.1875 0.5625 C-6.51762779 -0.66079074 -3.84782178 -0.31771006 0 0 Z " fill="#EE8410" transform="translate(55.1875,92.4375)"/>
<path d="M0 0 C10.56 0 21.12 0 32 0 C31 2 31 2 29.15234375 2.6328125 C28.42144531 2.79523438 27.69054687 2.95765625 26.9375 3.125 C25.83728516 3.37636719 25.83728516 3.37636719 24.71484375 3.6328125 C24.14894531 3.75398438 23.58304688 3.87515625 23 4 C23 3.34 23 2.68 23 2 C15.41 2 7.82 2 0 2 C0 1.34 0 0.68 0 0 Z " fill="#D46F1F" transform="translate(41,89)"/>
<path d="M0 0 C-1.61818268 1.94587111 -2.50584482 2.9096852 -5.03710938 3.37231445 C-6.17889648 3.36784302 -6.17889648 3.36784302 -7.34375 3.36328125 C-8.59478516 3.36231445 -8.59478516 3.36231445 -9.87109375 3.36132812 C-10.73863281 3.34521484 -11.60617188 3.32910156 -12.5 3.3125 C-13.36753906 3.31572266 -14.23507813 3.31894531 -15.12890625 3.32226562 C-21.59910409 3.26726394 -21.59910409 3.26726394 -25 1 C-16.64380043 0.24524649 -8.39004715 -0.13605482 0 0 Z " fill="#A69993" transform="translate(37,172)"/>
<path d="M0 0 C5.28 0 10.56 0 16 0 C13.33625753 2.66374247 11.73534903 2.65413435 8 3 C5.29718824 2.79583077 2.68280538 2.41629739 0 2 C0 1.34 0 0.68 0 0 Z " fill="#34110C" transform="translate(69,86)"/>
<path d="M0 0 C0.33 0.66 0.66 1.32 1 2 C2.65 2 4.3 2 6 2 C2.73386305 3.91302307 0.00554752 4.35674661 -3.75 4.625 C-4.73484375 4.69976562 -5.7196875 4.77453125 -6.734375 4.8515625 C-7.48203125 4.90054688 -8.2296875 4.94953125 -9 5 C-8.67 4.01 -8.34 3.02 -8 2 C-6.15234375 1.26953125 -6.15234375 1.26953125 -3.9375 0.8125 C-3.20402344 0.65394531 -2.47054687 0.49539062 -1.71484375 0.33203125 C-1.14894531 0.22246094 -0.58304688 0.11289063 0 0 Z " fill="#C77827" transform="translate(117,72)"/>
<path d="M0 0 C0.99 0.33 1.98 0.66 3 1 C2.34 2.32 1.68 3.64 1 5 C4.63 5.33 8.26 5.66 12 6 C8.31282562 8.45811625 6.35654296 8.31118164 2 8 C1.01 7.34 0.02 6.68 -1 6 C-0.67 4.02 -0.34 2.04 0 0 Z " fill="#E67013" transform="translate(42,90)"/>
<path d="M0 0 C1.32 0 2.64 0 4 0 C4 0.66 4 1.32 4 2 C6.64 1.67 9.28 1.34 12 1 C12 1.66 12 2.32 12 3 C8.54182441 4.94522377 6.43122397 5.08254219 2.6875 4.125 C1.470625 3.75375 0.25375 3.3825 -1 3 C-0.67 2.01 -0.34 1.02 0 0 Z " fill="#E58A1C" transform="translate(119,71)"/>
<path d="M0 0 C6.59904729 1.52785824 12.87389209 3.07617577 19 6 C19 6.33 19 6.66 19 7 C15.28400809 7.20086443 14.22791555 7.1519437 11 5 C8.67612053 4.60612212 6.34206251 4.26513915 4 4 C4 3.34 4 2.68 4 2 C2.68 1.67 1.36 1.34 0 1 C0 0.67 0 0.34 0 0 Z " fill="#9F572C" transform="translate(152,35)"/>
<path d="M0 0 C1.41569064 -0.08167446 2.83276805 -0.13949698 4.25 -0.1875 C5.43335938 -0.23970703 5.43335938 -0.23970703 6.640625 -0.29296875 C9 0 9 0 13 3 C9.04 3 5.08 3 1 3 C0.67 2.01 0.34 1.02 0 0 Z " fill="#DF7417" transform="translate(143,35)"/>
<path d="M0 0 C0.89694794 3.58779175 1.08304117 6.34618837 1 10 C2.32 10.33 3.64 10.66 5 11 C1.79937313 12.60031344 -0.72271806 11.03173691 -4 10 C-4 9.34 -4 8.68 -4 8 C-3.34 8 -2.68 8 -2 8 C-1.34 5.36 -0.68 2.72 0 0 Z " fill="#47342F" transform="translate(39,165)"/>
<path d="M0 0 C0.33 0.99 0.66 1.98 1 3 C-9.37357631 5.66514806 -9.37357631 5.66514806 -15 3 C-15 2.67 -15 2.34 -15 2 C-10.05 2 -5.1 2 0 2 C0 1.34 0 0.68 0 0 Z " fill="#B55625" transform="translate(217,96)"/>
<path d="M0 0 C4.38194261 4.58112182 5 10.91061589 5 17 C4.34 17 3.68 17 3 17 C2.92652344 16.07767578 2.92652344 16.07767578 2.8515625 15.13671875 C2.77679688 14.32847656 2.70203125 13.52023438 2.625 12.6875 C2.55539063 11.88699219 2.48578125 11.08648437 2.4140625 10.26171875 C2.10435574 7.72775559 2.10435574 7.72775559 0 5 C-0.125 2.3125 -0.125 2.3125 0 0 Z " fill="#B2A6A0" transform="translate(242,114)"/>
<path d="M0 0 C4.22797927 3.08290155 4.22797927 3.08290155 6 5 C6.375 7.8125 6.375 7.8125 6 10 C5.67 9.34 5.34 8.68 5 8 C4.34 7.7525 3.68 7.505 3 7.25 C1 6 1 6 0.25 2.875 C0.1675 1.92625 0.085 0.9775 0 0 Z " fill="#C4621F" transform="translate(192,56)"/>
<path d="M0 0 C0.66 0.33 1.32 0.66 2 1 C-1.00517424 4.86379545 -3.45081065 7.90983192 -8 10 C-8.66 9.67 -9.32 9.34 -10 9 C-6.7 6.03 -3.4 3.06 0 0 Z " fill="#A1572C" transform="translate(69,51)"/>
<path d="M0 0 C4.875 0.875 4.875 0.875 6 2 C7.34747084 2.23075082 8.70377565 2.41153063 10.0625 2.5625 C11.361875 2.706875 12.66125 2.85125 14 3 C10.1184112 5.58772586 8.46573523 4.87719799 4 4 C3.01 3.67 2.02 3.34 1 3 C0.67 2.01 0.34 1.02 0 0 Z " fill="#832423" transform="translate(47,180)"/>
<path d="M0 0 C3.375 -0.125 3.375 -0.125 7 0 C7.66 0.66 8.32 1.32 9 2 C3.25 4 3.25 4 1 4 C0.67 2.68 0.34 1.36 0 0 Z " fill="#150B08" transform="translate(222,107)"/>
<path d="M0 0 C0.33 0.66 0.66 1.32 1 2 C-3.30769231 5.93846154 -3.30769231 5.93846154 -6.8125 6.25 C-7.534375 6.1675 -8.25625 6.085 -9 6 C-8.67 5.01 -8.34 4.02 -8 3 C-5.0625 1.875 -5.0625 1.875 -2 1 C-1.34 0.67 -0.68 0.34 0 0 Z " fill="#F0830E" transform="translate(76,51)"/>
<path d="M0 0 C2.33524782 2.25740623 4.18705073 4.2805761 6 7 C5.625 9.1875 5.625 9.1875 5 11 C3 8 3 8 3 5 C2.01 4.67 1.02 4.34 0 4 C0 2.68 0 1.36 0 0 Z " fill="#6C3020" transform="translate(208,74)"/>
<path d="M0 0 C0.99 0.33 1.98 0.66 3 1 C2.690625 1.7425 2.38125 2.485 2.0625 3.25 C1.1905075 5.50692176 0.52332993 7.6450153 0 10 C-0.66 10 -1.32 10 -2 10 C-1.85950482 8.52031676 -1.71245174 7.04125484 -1.5625 5.5625 C-1.48128906 4.73878906 -1.40007813 3.91507812 -1.31640625 3.06640625 C-1 1 -1 1 0 0 Z " fill="#F0860E" transform="translate(52,72)"/>
<path d="M0 0 C-0.61875 0.0825 -1.2375 0.165 -1.875 0.25 C-4.15723303 0.78648121 -4.15723303 0.78648121 -5 2.875 C-5.33 3.57625 -5.66 4.2775 -6 5 C-8.125 6.75 -8.125 6.75 -10 8 C-7.95662621 2.18424383 -6.49689233 -0.52677505 0 0 Z " fill="#CAC7C6" transform="translate(236,108)"/>
<path d="M0 0 C2 3 2 3 2 6 C3.32 6.33 4.64 6.66 6 7 C5.67 7.66 5.34 8.32 5 9 C3.02 8.34 1.04 7.68 -1 7 C-0.67 4.69 -0.34 2.38 0 0 Z " fill="#744333" transform="translate(37,93)"/>
<path d="M0 0 C0.33 0.99 0.66 1.98 1 3 C-1.475 4.485 -1.475 4.485 -4 6 C-4.33 5.01 -4.66 4.02 -5 3 C-3.35 2.01 -1.7 1.02 0 0 Z " fill="#E87A11" transform="translate(66,57)"/>
<path d="M0 0 C1.98 0 3.96 0 6 0 C6 0.99 6 1.98 6 3 C4.02 3 2.04 3 0 3 C0 2.01 0 1.02 0 0 Z " fill="#141310" transform="translate(231,133)"/>
<path d="M0 0 C0.33 0.99 0.66 1.98 1 3 C-1.35968744 5.09749995 -2.54616994 5.96905704 -5.75 6.1875 C-6.86375 6.0946875 -6.86375 6.0946875 -8 6 C-5 4 -5 4 -2.875 3.5625 C-1.946875 3.2840625 -1.946875 3.2840625 -1 3 C-0.67 2.01 -0.34 1.02 0 0 Z " fill="#43413F" transform="translate(126,167)"/>
<path d="M0 0 C2.35171131 0.59861742 4.6859378 1.26924352 7 2 C7.33 2.66 7.66 3.32 8 4 C4.7 3.34 1.4 2.68 -2 2 C-1.34 1.34 -0.68 0.68 0 0 Z " fill="#976444" transform="translate(180,90)"/>
<path d="M0 0 C0.598125 0.20625 1.19625 0.4125 1.8125 0.625 C0.5625 2.125 0.5625 2.125 -1.1875 3.625 C-2.5075 3.625 -3.8275 3.625 -5.1875 3.625 C-5.1875 2.965 -5.1875 2.305 -5.1875 1.625 C-2.1875 -0.375 -2.1875 -0.375 0 0 Z " fill="#E27616" transform="translate(84.1875,44.375)"/>
</svg>
